<svg width="14" height="17" viewBox="0 0 14 17" fill="none" xmlns="http://www.w3.org/2000/svg">
<path d="M12.0625 5.625H1.9375C1.49008 5.62545 1.06112 5.80338 0.744751 6.11975C0.42838 6.43612 0.250447 6.86509 0.25 7.3125V10.6875C0.250298 10.9858 0.36892 11.2718 0.579834 11.4827C0.790748 11.6936 1.07672 11.8122 1.375 11.8125V15.75C1.3753 16.0483 1.49392 16.3343 1.70483 16.5452C1.91575 16.7561 2.20172 16.8747 2.5 16.875H4.75C5.04828 16.8747 5.33425 16.7561 5.54517 16.5452C5.75608 16.3343 5.8747 16.0483 5.875 15.75V9H4.75V15.75H2.5V10.6875H1.375V7.3125C1.375 7.16332 1.43426 7.02024 1.53975 6.91475C1.64524 6.80926 1.78832 6.75 1.9375 6.75H12.0625C12.2117 6.75 12.3548 6.80926 12.4602 6.91475C12.5657 7.02024 12.625 7.16332 12.625 7.3125V10.6875H11.5V15.75H9.25V9H8.125V15.75C8.1253 16.0483 8.24392 16.3343 8.45483 16.5452C8.66575 16.7561 8.95172 16.8747 9.25 16.875H11.5C11.7983 16.8747 12.0843 16.7561 12.2952 16.5452C12.5061 16.3343 12.6247 16.0483 12.625 15.75V11.8125C12.9233 11.8122 13.2093 11.6936 13.4202 11.4827C13.6311 11.2718 13.7497 10.9858 13.75 10.6875V7.3125C13.7496 6.86509 13.5716 6.43612 13.2552 6.11975C12.9389 5.80338 12.5099 5.62545 12.0625 5.625ZM3.625 5.0625C3.17999 5.0625 2.74498 4.93054 2.37497 4.68331C2.00496 4.43607 1.71657 4.08467 1.54627 3.67354C1.37597 3.2624 1.33142 2.81001 1.41823 2.37355C1.50505 1.93709 1.71934 1.53618 2.03401 1.22151C2.34868 0.906843 2.74959 0.692551 3.18605 0.605734C3.6225 0.518917 4.0749 0.563475 4.48604 0.733772C4.89717 0.904069 5.24857 1.19246 5.49581 1.56247C5.74304 1.93248 5.875 2.36749 5.875 2.8125C5.8744 3.40906 5.63716 3.98101 5.21533 4.40283C4.7935 4.82466 4.22155 5.06191 3.625 5.0625ZM3.625 1.6875C3.4025 1.6875 3.18499 1.75348 2.99998 1.8771C2.81498 2.00071 2.67078 2.17642 2.58564 2.38198C2.50049 2.58755 2.47821 2.81375 2.52162 3.03198C2.56502 3.25021 2.67217 3.45066 2.8295 3.608C2.98684 3.76533 3.18729 3.87248 3.40552 3.91588C3.62375 3.95929 3.84995 3.93701 4.05552 3.85187C4.26109 3.76672 4.43679 3.62252 4.5604 3.43752C4.68402 3.25251 4.75 3.03501 4.75 2.8125C4.7497 2.51422 4.63108 2.22825 4.42017 2.01733C4.20925 1.80642 3.92328 1.6878 3.625 1.6875ZM10.375 5.0625C9.92999 5.0625 9.49498 4.93054 9.12497 4.68331C8.75496 4.43607 8.46657 4.08467 8.29627 3.67354C8.12597 3.2624 8.08142 2.81001 8.16823 2.37355C8.25505 1.93709 8.46934 1.53618 8.78401 1.22151C9.09868 0.906843 9.49959 0.692551 9.93605 0.605734C10.3725 0.518917 10.8249 0.563475 11.236 0.733772C11.6472 0.904069 11.9986 1.19246 12.2458 1.56247C12.493 1.93248 12.625 2.36749 12.625 2.8125C12.6244 3.40906 12.3872 3.98101 11.9653 4.40283C11.5435 4.82466 10.9716 5.06191 10.375 5.0625ZM10.375 1.6875C10.1525 1.6875 9.93499 1.75348 9.74998 1.8771C9.56498 2.00071 9.42078 2.17642 9.33564 2.38198C9.25049 2.58755 9.22821 2.81375 9.27162 3.03198C9.31502 3.25021 9.42217 3.45066 9.5795 3.608C9.73684 3.76533 9.93729 3.87248 10.1555 3.91588C10.3738 3.95929 10.6 3.93701 10.8055 3.85187C11.0111 3.76672 11.1868 3.62252 11.3104 3.43752C11.434 3.25251 11.5 3.03501 11.5 2.8125C11.4997 2.51422 11.3811 2.22825 11.1702 2.01733C10.9593 1.80642 10.6733 1.6878 10.375 1.6875Z" fill="#464646"/>
</svg>
