<svg width="18" height="18" viewBox="0 0 18 18" fill="none" xmlns="http://www.w3.org/2000/svg">
    <path d="M1.72203 7.30012C1.69555 7.18986 1.69442 7.07503 1.71872 6.96427C1.74302 6.85351 1.79212 6.7497 1.86233 6.66065C1.93253 6.57161 2.02202 6.49964 2.12405 6.45016C2.22608 6.40068 2.33801 6.37498 2.4514 6.375H15.5487C15.662 6.37498 15.774 6.40068 15.876 6.45016C15.978 6.49964 16.0675 6.57161 16.1377 6.66065C16.2079 6.7497 16.257 6.85351 16.2813 6.96427C16.3056 7.07503 16.3045 7.18986 16.278 7.30012L14.388 15.1751C14.3487 15.3389 14.2553 15.4847 14.123 15.589C13.9907 15.6933 13.8271 15.75 13.6587 15.75H4.3414C4.17293 15.75 4.00935 15.6933 3.87703 15.589C3.74472 15.4847 3.65137 15.3389 3.61203 15.1751L1.72203 7.30012Z" stroke="#464646" stroke-width="1.5" stroke-linecap="round" stroke-linejoin="round"/>
    <path d="M7.125 6.375L9.5625 3L14.25 6.375M4.125 2.625H7.125V6.375H4.125V2.625Z" stroke="#464646" stroke-width="1.5" stroke-linecap="round" stroke-linejoin="round"/>
    <path d="M5.625 9.375H8.625" stroke="#464646" stroke-width="1.5" stroke-linecap="round"/>
</svg>
