<svg width="50" height="50" viewBox="0 0 50 50" fill="none" xmlns="http://www.w3.org/2000/svg">
    <path d="M18.7501 4.16675C10.7206 4.16675 4.16675 10.7206 4.16675 18.7501C4.16675 26.7796 10.7206 33.3334 18.7501 33.3334C22.3918 33.3334 25.7189 31.9751 28.2797 29.7527L29.1668 30.6397V33.3334L41.6668 45.8334L45.8334 41.6668L33.3334 29.1668H30.6397L29.7527 28.2797C31.9751 25.7189 33.3334 22.3918 33.3334 18.7501C33.3334 10.7206 26.7796 4.16675 18.7501 4.16675ZM18.7501 8.33342C24.5277 8.33342 29.1668 12.9724 29.1668 18.7501C29.1668 24.5277 24.5277 29.1668 18.7501 29.1668C12.9724 29.1668 8.33342 24.5277 8.33342 18.7501C8.33342 12.9724 12.9724 8.33342 18.7501 8.33342Z" fill="#B3B3B3"/>
</svg>
