<svg width="40" height="40" viewBox="0 0 40 40" fill="none" xmlns="http://www.w3.org/2000/svg">
    <path d="M27.5 25.1C26.55 25.1 25.7 25.475 25.05 26.0625L16.1375 20.875C16.2 20.5875 16.25 20.3 16.25 20C16.25 19.7 16.2 19.4125 16.1375 19.125L24.95 13.9875C25.625 14.6125 26.5125 15 27.5 15C29.575 15 31.25 13.325 31.25 11.25C31.25 9.175 29.575 7.5 27.5 7.5C25.425 7.5 23.75 9.175 23.75 11.25C23.75 11.55 23.8 11.8375 23.8625 12.125L15.05 17.2625C14.375 16.6375 13.4875 16.25 12.5 16.25C10.425 16.25 8.75 17.925 8.75 20C8.75 22.075 10.425 23.75 12.5 23.75C13.4875 23.75 14.375 23.3625 15.05 22.7375L23.95 27.9375C23.8875 28.2 23.85 28.475 23.85 28.75C23.85 30.7625 25.4875 32.4 27.5 32.4C29.5125 32.4 31.15 30.7625 31.15 28.75C31.15 26.7375 29.5125 25.1 27.5 25.1Z" fill="white"/>
</svg>
