<svg width="569" height="406" viewBox="0 0 569 406" fill="none" xmlns="http://www.w3.org/2000/svg">
    <g clip-path="url(#clip0_14_2)">
        <path d="M44.4146 56.1484C57.6047 56.1484 68.2974 45.4571 68.2974 32.2687C68.2974 19.0802 57.6047 8.38892 44.4146 8.38892C31.2244 8.38892 20.5317 19.0802 20.5317 32.2687C20.5317 45.4571 31.2244 56.1484 44.4146 56.1484Z" fill="#FF6584"/>
        <path d="M192.073 389.777C211.071 397.647 231.242 402.315 251.767 403.591C261.383 404.19 271.18 404.219 280.746 402.949C289.129 401.836 297.643 399.551 304.63 394.61C311.614 389.585 316.531 382.191 318.462 373.808C320.599 364.971 319.7 355.714 316.648 347.203C313.499 338.392 308.519 330.348 302.037 323.599C296.227 317.653 288.087 312.243 279.384 313.261C271.018 314.24 264.934 321.002 262.706 328.826C260.034 338.205 263.108 348.127 267.276 356.571C274.345 370.895 285.692 382.918 299.129 391.466C312.646 400.119 328.187 405.098 344.217 405.913C360.278 406.636 377.553 402.912 390.209 392.536C396.874 387.12 401.633 379.716 403.792 371.404C406.039 362.632 405.451 353.368 403.507 344.6C399.285 325.564 388.134 309.2 381.677 290.979C380.076 286.533 378.844 281.962 377.992 277.314C377.779 276.122 375.962 276.627 376.174 277.815C379.513 296.56 390.08 312.699 397.016 330.156C403.335 346.057 407.096 365.578 397.736 381.103C389.316 395.07 372.594 401.877 357 403.615C341.751 405.314 326.14 402.582 312.161 396.336C298.091 390.049 285.482 380.256 276.335 367.814C271.363 361.052 267.08 353.392 264.884 345.254C262.636 336.924 263.163 327.488 269.109 320.76C271.734 317.698 275.389 315.702 279.384 315.147C283.535 314.627 287.692 315.79 291.34 317.729C299.173 321.891 305.001 329.126 309.499 336.608C314.145 344.338 317.419 353.1 317.744 362.183C318.046 370.628 315.83 379.286 310.753 386.122C300.271 400.234 280.57 401.948 264.402 402.056C244.586 402.178 224.879 399.104 206.042 392.952C201.489 391.464 197 389.8 192.574 387.959C191.455 387.495 190.966 389.318 192.073 389.777H192.073Z" fill="#E6E6E6"/>
        <path d="M143.06 328.614L137.997 320.842C137.407 319.934 137.201 318.829 137.424 317.769C137.648 316.71 138.283 315.782 139.19 315.19L170.032 291.219C170.94 290.629 172.045 290.423 173.105 290.647C174.165 290.87 175.092 291.505 175.685 292.412L180.748 300.184C181.338 301.092 181.544 302.197 181.32 303.256C181.097 304.316 180.462 305.243 179.555 305.836L148.713 329.807C147.805 330.397 146.699 330.602 145.64 330.379C144.58 330.155 143.652 329.52 143.06 328.614Z" fill="#2F2E41"/>
        <path d="M139.223 315.225L147.357 310.767C148.308 310.248 149.425 310.126 150.465 310.43C151.505 310.733 152.382 311.437 152.903 312.386L174.502 351.296C175.021 352.246 175.142 353.363 174.839 354.403C174.536 355.442 173.832 356.319 172.883 356.841L164.748 361.299C163.798 361.818 162.68 361.94 161.641 361.636C160.601 361.333 159.724 360.629 159.202 359.68L137.604 320.77C137.085 319.82 136.963 318.703 137.267 317.663C137.57 316.623 138.274 315.747 139.223 315.225Z" fill="#2F2E41"/>
        <path d="M82.6823 243.623C81.6461 243.621 80.6492 243.226 79.8935 242.517C79.1378 241.808 78.6797 240.839 78.6119 239.805L78.0057 230.55C77.9349 229.469 78.2964 228.404 79.0108 227.59C79.7253 226.775 80.734 226.278 81.8152 226.207L154.336 221.458C155.479 221.383 156.626 221.534 157.71 221.903C158.795 222.271 159.797 222.849 160.658 223.604C161.519 224.36 162.223 225.277 162.73 226.305C163.236 227.332 163.536 228.449 163.611 229.592C163.686 230.735 163.534 231.881 163.166 232.966C162.798 234.051 162.22 235.052 161.464 235.913C160.709 236.774 159.791 237.478 158.764 237.985C157.736 238.492 156.619 238.791 155.476 238.866L82.9554 243.614C82.8641 243.62 82.7731 243.623 82.6823 243.623Z" fill="#6C63FF"/>
        <path d="M96.9822 244.816C95.9258 244.814 94.911 244.404 94.1504 243.671C93.3898 242.938 92.9423 241.939 92.9016 240.884L92.3848 227.06C92.3648 226.524 92.4505 225.989 92.6372 225.486C92.8238 224.983 93.1078 224.522 93.4727 224.129C93.8376 223.736 94.2764 223.418 94.7641 223.195C95.2517 222.971 95.7786 222.846 96.3147 222.826L155.95 220.597C157.033 220.557 158.088 220.948 158.882 221.685C159.676 222.422 160.145 223.444 160.185 224.527L160.702 238.35C160.722 238.886 160.636 239.421 160.45 239.924C160.263 240.427 159.979 240.888 159.614 241.281C159.249 241.675 158.811 241.992 158.323 242.216C157.835 242.439 157.308 242.565 156.772 242.585L97.1366 244.813C97.085 244.815 97.0333 244.816 96.9822 244.816Z" fill="#CCCCCC"/>
        <path d="M192.74 390.972V360.972C192.74 334.784 181.313 309.669 160.924 293.231C145.684 280.945 123.611 271.757 91.9894 273.81L104.036 225.632L6.10352e-05 296.805L101.845 367.978L91.4418 322.536C91.4418 322.536 154.958 310.492 192.74 390.972Z" fill="#3F3D56"/>
        <path d="M119.982 343.551L112.479 338.097C111.604 337.459 111.017 336.5 110.848 335.431C110.679 334.361 110.941 333.268 111.577 332.391L157.044 269.867C157.682 268.992 158.641 268.406 159.711 268.237C160.78 268.068 161.874 268.33 162.75 268.966L170.253 274.42C171.128 275.058 171.715 276.017 171.884 277.087C172.053 278.156 171.791 279.249 171.155 280.126L125.688 342.65C125.05 343.525 124.091 344.111 123.022 344.281C121.952 344.45 120.859 344.187 119.982 343.551Z" fill="#2F2E41"/>
        <path d="M111.621 332.412L117.63 325.346C118.332 324.522 119.333 324.01 120.413 323.923C121.492 323.835 122.563 324.18 123.388 324.88L157.447 353.527C158.271 354.23 158.783 355.231 158.871 356.31C158.958 357.389 158.614 358.459 157.913 359.285L151.904 366.351C151.201 367.176 150.201 367.688 149.121 367.775C148.041 367.862 146.971 367.518 146.145 366.817L112.087 338.17C111.263 337.467 110.751 336.467 110.663 335.387C110.576 334.308 110.92 333.238 111.621 332.412Z" fill="#2F2E41"/>
        <path d="M152.777 206.098C170.479 206.098 184.83 191.749 184.83 174.049C184.83 156.349 170.479 142 152.777 142C135.074 142 120.723 156.349 120.723 174.049C120.723 191.749 135.074 206.098 152.777 206.098Z" fill="#6C63FF"/>
        <path d="M138.676 188.165C137.591 188.188 136.514 187.978 135.517 187.55C134.844 187.23 134.248 186.768 133.773 186.194C133.297 185.62 132.953 184.95 132.764 184.229C132.62 183.719 132.596 183.182 132.694 182.661C132.791 182.14 133.008 181.649 133.328 181.225C134.165 180.151 135.61 179.64 137.311 179.771L133.101 167.989L134.285 167.566L139.234 181.417L138.118 181.164C136.824 180.872 135.147 180.936 134.319 181.998C134.119 182.272 133.984 182.589 133.926 182.923C133.868 183.258 133.888 183.601 133.984 183.927C134.128 184.463 134.385 184.961 134.739 185.389C135.093 185.816 135.534 186.163 136.034 186.404C137.783 187.194 139.831 186.913 142.132 186.496L142.356 187.732C141.145 187.986 139.914 188.131 138.676 188.165Z" fill="#2F2E41"/>
        <path d="M127.294 170.301L120.669 171.693L120.927 172.923L127.553 171.531L127.294 170.301Z" fill="#2F2E41"/>
        <path d="M148.206 165.908L141.581 167.3L141.839 168.53L148.465 167.138L148.206 165.908Z" fill="#2F2E41"/>
        <path d="M179.541 311.599H125.491C124.074 311.597 122.716 311.034 121.715 310.033C120.713 309.031 120.15 307.673 120.148 306.257L131.464 219.496C131.473 218.086 132.04 216.737 133.04 215.744C134.041 214.751 135.394 214.194 136.804 214.195H155.985C163.647 214.203 170.992 217.25 176.41 222.667C181.827 228.084 184.875 235.428 184.883 243.089V306.257C184.882 307.673 184.319 309.031 183.317 310.033C182.315 311.034 180.958 311.597 179.541 311.599Z" fill="#CCCCCC"/>
        <path d="M95.1357 275.374C94.347 275.374 93.575 275.146 92.9126 274.718C92.2502 274.29 91.7256 273.68 91.402 272.961L87.6053 264.498C87.3857 264.009 87.2646 263.481 87.2491 262.945C87.2335 262.408 87.3238 261.874 87.5146 261.373C87.7055 260.872 87.9932 260.413 88.3614 260.023C88.7297 259.633 89.1711 259.319 89.6606 259.099L155.97 229.357C157.015 228.888 158.142 228.63 159.287 228.597C160.432 228.563 161.573 228.756 162.643 229.163C163.714 229.571 164.694 230.185 165.527 230.971C166.36 231.757 167.03 232.7 167.499 233.745C167.968 234.79 168.227 235.917 168.26 237.062C168.293 238.207 168.1 239.347 167.693 240.418C167.285 241.488 166.671 242.468 165.885 243.301C165.099 244.134 164.156 244.804 163.111 245.273L96.8016 275.016C96.2779 275.251 95.7101 275.373 95.1357 275.374Z" fill="#6C63FF"/>
        <path d="M114.477 271.004C113.688 271.005 112.916 270.777 112.254 270.349C111.591 269.921 111.067 269.311 110.743 268.592L104.258 254.137C103.816 253.148 103.784 252.025 104.169 251.013C104.555 250.001 105.326 249.183 106.313 248.738L160.763 224.315C161.252 224.096 161.78 223.975 162.317 223.959C162.853 223.944 163.387 224.034 163.888 224.225C164.39 224.416 164.849 224.703 165.239 225.071C165.629 225.44 165.943 225.881 166.162 226.37L172.648 240.825C172.867 241.314 172.988 241.842 173.004 242.378C173.019 242.914 172.929 243.448 172.738 243.95C172.547 244.451 172.26 244.91 171.891 245.3C171.523 245.69 171.082 246.004 170.592 246.223L116.143 270.647C115.619 270.882 115.051 271.004 114.477 271.004Z" fill="#CCCCCC"/>
        <path d="M145.665 153.955C140.446 152.033 136.156 157.097 131.427 158.256C126.903 159.366 122.029 156.756 119.612 152.953C116.793 148.516 117.491 142.755 120.056 138.375C122.865 133.577 127.867 130.633 133.169 129.348C139.245 127.874 145.576 128.599 151.573 130.095C157.325 131.442 162.902 133.45 168.192 136.078C172.975 138.553 177.508 141.939 180.304 146.629C182.844 150.891 184.101 156.196 182.844 161.079C182.152 163.6 180.821 165.9 178.981 167.757C177.088 169.76 174.919 171.498 173.154 173.623C170.484 176.837 168.691 182.104 171.322 185.905C171.893 186.737 172.659 187.417 173.554 187.883C174.629 188.443 175.584 186.816 174.506 186.255C172.613 185.269 171.926 183.269 171.977 181.229C172.079 178.914 172.964 176.702 174.487 174.956C176.336 172.734 178.622 170.936 180.574 168.812C182.463 166.832 183.846 164.426 184.604 161.797C185.992 156.713 184.907 151.176 182.451 146.596C179.793 141.639 175.339 137.896 170.491 135.176C165.215 132.216 159.352 130.232 153.53 128.657C147.283 126.966 140.724 126.014 134.296 127.184C128.724 128.198 123.278 130.888 119.774 135.439C116.503 139.687 114.94 145.477 116.522 150.704C117.273 153.07 118.641 155.194 120.485 156.857C122.33 158.52 124.584 159.661 127.016 160.163C129.488 160.618 132.042 160.285 134.315 159.211C136.764 158.113 138.989 156.408 141.594 155.678C142.762 155.321 144.015 155.354 145.163 155.773C146.304 156.193 146.796 154.372 145.665 153.955Z" fill="#2F2E41"/>
        <path d="M376.26 281.648V251.648C376.26 225.46 387.687 200.345 408.076 183.907C423.316 171.621 445.389 162.434 477.011 164.487L464.964 116.308L569 187.481L467.155 258.654L477.558 213.213C477.558 213.213 414.042 201.168 376.26 281.648Z" fill="#3F3D56"/>
        <path d="M432.811 131.55C431.468 130.466 430.477 129.009 429.962 127.363C429.448 125.716 429.434 123.954 429.921 122.299C430.408 120.644 431.375 119.171 432.7 118.065C434.025 116.96 435.647 116.272 437.363 116.089L509.628 108.374C510.705 108.26 511.783 108.578 512.626 109.259C513.469 109.939 514.007 110.925 514.124 112.002L513.811 112.035L514.124 112.002L515.109 121.225C515.166 121.758 515.117 122.297 514.965 122.812C514.814 123.327 514.562 123.806 514.225 124.224C513.889 124.641 513.473 124.988 513.002 125.245C512.531 125.502 512.014 125.663 511.48 125.72L439.215 133.435C438.902 133.469 438.587 133.485 438.272 133.485C436.283 133.487 434.355 132.803 432.811 131.55Z" fill="#6C63FF"/>
        <path d="M454.098 195.263V185.988C454.099 184.905 454.53 183.867 455.296 183.101C456.062 182.336 457.1 181.905 458.183 181.904H535.497C536.58 181.905 537.618 182.336 538.384 183.101C539.15 183.867 539.581 184.905 539.582 185.988V195.263C539.581 196.346 539.15 197.385 538.384 198.15C537.618 198.916 536.58 199.347 535.497 199.348H458.183C457.1 199.347 456.062 198.916 455.296 198.15C454.53 197.385 454.099 196.346 454.098 195.263Z" fill="#6C63FF"/>
        <path d="M417.132 195.715C416.652 195.475 416.225 195.142 415.874 194.735C415.524 194.329 415.257 193.857 415.09 193.347L412.182 184.539C411.843 183.511 411.927 182.39 412.414 181.423C412.901 180.455 413.752 179.721 414.78 179.38L488.196 155.143C489.225 154.803 490.346 154.886 491.314 155.373C492.282 155.861 493.016 156.712 493.356 157.741L493.057 157.84L493.356 157.741L496.264 166.548C496.603 167.577 496.519 168.698 496.032 169.665C495.545 170.632 494.694 171.367 493.666 171.708L420.25 195.945C419.741 196.114 419.203 196.181 418.668 196.142C418.133 196.102 417.611 195.957 417.132 195.715V195.715Z" fill="#6C63FF"/>
        <path d="M513.381 198.436L480.432 168.732C479.629 168.005 479.146 166.99 479.09 165.909C479.034 164.827 479.41 163.768 480.134 162.963L486.346 156.074C487.071 155.27 488.087 154.786 489.169 154.73C490.251 154.674 491.311 155.05 492.115 155.776L525.064 185.48C525.868 186.206 526.35 187.222 526.406 188.303C526.462 189.385 526.087 190.444 525.363 191.249L519.151 198.138C518.793 198.537 518.359 198.862 517.874 199.092C517.389 199.323 516.864 199.455 516.328 199.481C516.256 199.485 516.184 199.487 516.112 199.487C515.102 199.489 514.129 199.114 513.381 198.436Z" fill="#6C63FF"/>
        <path d="M429.614 91.7224C447.317 91.7224 461.668 77.3735 461.668 59.6733C461.668 41.9731 447.317 27.6242 429.614 27.6242C411.912 27.6242 397.561 41.9731 397.561 59.6733C397.561 77.3735 411.912 91.7224 429.614 91.7224Z" fill="#6C63FF"/>
        <path d="M392.099 186.866C389.857 183.035 388.675 178.676 388.675 174.237C388.675 169.798 389.857 165.439 392.099 161.608L426.076 102.766C426.435 102.145 426.951 101.629 427.572 101.27C428.193 100.912 428.897 100.723 429.614 100.723C430.331 100.723 431.036 100.912 431.657 101.27C432.278 101.629 432.794 102.145 433.152 102.766L485.469 193.368C485.827 193.989 486.016 194.694 486.016 195.411C486.016 196.128 485.827 196.832 485.469 197.453C485.11 198.074 484.594 198.59 483.973 198.948C483.352 199.307 482.648 199.495 481.931 199.495H413.977C409.537 199.522 405.171 198.366 401.326 196.146C397.481 193.927 394.296 190.724 392.099 186.866Z" fill="#CCCCCC"/>
        <path d="M456.035 71.8702C458.112 71.8125 460.698 71.7404 462.69 70.2853C463.284 69.8343 463.771 69.259 464.118 68.5999C464.466 67.9407 464.665 67.2136 464.702 66.4694C464.738 65.9404 464.651 65.4103 464.448 64.9204C464.245 64.4306 463.932 63.9942 463.532 63.6455C462.492 62.7661 460.973 62.5602 459.335 63.0414L461.032 50.6455L459.786 50.4749L457.792 65.0478L458.832 64.5707C460.038 64.0177 461.693 63.7367 462.721 64.6054C462.974 64.8326 463.17 65.1149 463.296 65.4305C463.422 65.7461 463.473 66.0864 463.445 66.4249C463.415 66.9788 463.266 67.5197 463.007 68.0106C462.749 68.5016 462.388 68.9313 461.949 69.2703C460.399 70.4025 458.337 70.5486 456 70.6139L456.035 71.8702Z" fill="#2F2E41"/>
        <path d="M452.592 51.7146H445.822V52.9714H452.592V51.7146Z" fill="#2F2E41"/>
        <path d="M410.61 21.8756C409.719 18.2381 408.069 14.8302 405.768 11.8758C403.467 8.92136 400.566 6.48737 397.257 4.73375C393.863 2.9898 390.123 2.02356 386.309 1.90523C382.495 1.78691 378.702 2.51946 375.207 4.04968C371.627 5.58292 368.448 7.9186 365.915 10.8762C363.382 13.8339 361.563 17.3342 360.598 21.1068C359.606 24.9021 359.468 28.8704 360.196 32.7253C361.09 36.8082 362.823 40.6606 365.286 44.0378C367.769 47.6329 370.688 50.8956 373.368 54.3401C376.058 57.7917 378.508 61.4241 380.7 65.2116C387.304 76.6231 391.492 89.2702 393.002 102.368C393.514 106.324 393.61 110.322 393.291 114.298C392.569 122.019 389.578 129.581 382.712 133.782C379.061 136.016 374.848 137.169 370.681 137.976C366.003 138.967 361.216 139.341 356.441 139.089C348.369 138.515 340.291 135.147 335.603 128.288C334.566 126.761 333.753 125.092 333.191 123.333C332.818 122.176 334.638 121.68 335.009 122.832C337.492 130.528 345.028 135.273 352.654 136.719C357.403 137.515 362.252 137.51 367 136.705C371.313 136.061 375.757 135.17 379.71 133.267C383.302 131.592 386.281 128.838 388.232 125.39C389.996 122.06 391.064 118.406 391.371 114.651C392.211 106.429 390.843 97.9169 388.794 89.9642C386.602 81.4527 383.239 73.2864 378.802 65.699C376.586 61.9079 374.104 58.278 371.377 54.8363C368.676 51.4319 365.795 48.1582 363.359 44.5519C360.954 41.1499 359.26 37.298 358.378 33.2264C357.627 29.3198 357.697 25.2999 358.583 21.4216C359.437 17.5942 361.109 13.9966 363.483 10.8755C365.858 7.75441 368.88 5.18361 372.341 3.33928C379.133 -0.243449 387.409 -1.10126 394.675 1.53872C401.726 4.14025 407.466 9.41898 410.646 16.2278C411.411 17.8794 412.007 19.6036 412.428 21.3744C412.705 22.5544 410.888 23.058 410.61 21.8756V21.8756Z" fill="#2F2E41"/>
        <path d="M404.483 23.4082C403.301 20.0399 400.919 17.2253 397.793 15.5025C394.666 13.7796 391.014 13.2693 387.535 14.0692C386.354 14.3453 385.851 12.528 387.033 12.2513C390.997 11.2792 395.181 11.8361 398.752 13.811C402.323 15.7858 405.018 19.0336 406.301 22.907C406.697 24.0568 404.876 24.5506 404.483 23.4082Z" fill="#2F2E41"/>
        <path d="M404.196 30.2214C403.835 29.3792 403.823 28.4281 404.162 27.577C404.502 26.7259 405.165 26.0442 406.007 25.6814L414.668 21.9591C415.51 21.5971 416.462 21.5845 417.313 21.9241C418.165 22.2637 418.847 22.9276 419.209 23.7698C419.571 24.612 419.583 25.5635 419.244 26.415C418.904 27.2664 418.24 27.9481 417.398 28.3101L408.737 32.0324C407.894 32.3943 406.943 32.4068 406.091 32.0672C405.239 31.7276 404.558 31.0636 404.196 30.2214Z" fill="#2F2E41"/>
        <path d="M425.514 206.855L416.268 206.104C415.189 206.015 414.189 205.502 413.487 204.677C412.786 203.852 412.441 202.782 412.527 201.702L418.408 129.274C418.5 128.132 418.817 127.02 419.339 126C419.862 124.98 420.58 124.073 421.453 123.331C422.326 122.589 423.337 122.026 424.427 121.675C425.518 121.323 426.667 121.19 427.809 121.283C428.951 121.375 430.064 121.692 431.084 122.215C432.103 122.738 433.01 123.456 433.752 124.33C434.494 125.203 435.056 126.214 435.407 127.304C435.758 128.395 435.891 129.544 435.798 130.686L429.916 203.114C429.834 204.136 429.37 205.089 428.616 205.784C427.863 206.48 426.876 206.867 425.851 206.868C425.739 206.868 425.627 206.864 425.514 206.855Z" fill="#6C63FF"/>
        <path d="M8.15139 62.6436C4.84706 54.9197 9.3765 44.8429 17.3471 42.1857C25.3176 39.5284 34.9889 44.8709 36.9818 53.0321C35.6933 49.8894 35.1516 46.4907 35.3991 43.1033C35.6467 39.7158 36.6768 36.432 38.4085 33.51C40.1402 30.588 42.5263 28.1075 45.379 26.2636C48.2318 24.4197 51.4734 23.2626 54.8491 22.8834C58.2248 22.5041 61.6424 22.9131 64.8333 24.0781C68.0242 25.243 70.9012 27.1322 73.2383 29.5972C75.5753 32.0621 77.3085 35.0355 78.3017 38.2835C79.2949 41.5316 79.521 44.9657 78.9621 48.3159C83.7668 41.2336 94.0761 38.5588 101.719 42.4116C109.361 46.2644 113.341 56.1426 110.503 64.2164L5.30731 64.0285" fill="#F2F2F2"/>
        <path d="M221.212 150.622C217.907 142.898 222.437 132.821 230.407 130.164C238.378 127.506 248.049 132.849 250.042 141.01C248.753 137.867 248.212 134.469 248.459 131.081C248.707 127.694 249.737 124.41 251.469 121.488C253.2 118.566 255.586 116.085 258.439 114.242C261.292 112.398 264.534 111.241 267.909 110.861C271.285 110.482 274.703 110.891 277.893 112.056C281.084 113.221 283.961 115.11 286.298 117.575C288.635 120.04 290.369 123.013 291.362 126.262C292.355 129.51 292.581 132.944 292.022 136.294C296.827 129.212 307.136 126.537 314.779 130.39C322.421 134.242 326.401 144.121 323.563 152.194L218.367 152.007" fill="#F2F2F2"/>
    </g>
    <defs>
        <clipPath id="clip0_14_2">
            <rect width="569" height="406" fill="white"/>
        </clipPath>
    </defs>
</svg>
