<svg width="417" height="235" viewBox="0 0 417 235" fill="none" xmlns="http://www.w3.org/2000/svg">
    <g clip-path="url(#clip0_47_28)">
        <path d="M377.605 34.8684C377.541 42.1241 377.01 49.3681 376.013 56.5554C375.979 56.8079 375.941 57.0602 375.906 57.3126L307.938 56.933C307.739 56.6823 307.542 56.4286 307.352 56.1719C306.717 55.3223 306.123 54.4486 305.577 53.5447C302.952 49.1902 301.751 44.092 302.955 40.5746L302.977 40.5199C303.236 39.7497 303.646 39.0383 304.182 38.4267C306.926 35.3378 312.476 35.8528 317.512 38.346C312.995 33.4027 309.398 27.1651 309.125 21.5973C308.857 16.1665 311.697 12.2869 314.778 8.98987C314.879 8.88088 314.98 8.77492 315.082 8.66897C315.131 8.61447 315.183 8.563 315.232 8.5085C317.635 5.99595 320.438 3.51911 324.494 3.81873C328.942 4.14791 333.875 7.87311 337.333 12.214C340.791 16.5518 343.089 21.4796 345.418 26.2889C347.751 31.0952 350.274 36.0243 354.017 40.1324C348.948 33.7222 344.861 26.4289 343.351 19.3355C341.841 12.2422 343.17 5.42948 347.688 2.08879C349.059 1.10585 350.646 0.46563 352.316 0.221693C352.511 0.189309 352.709 0.163017 352.91 0.139793C357.092 -0.335943 362.086 1.11014 366.334 4.56675C371.013 8.37273 374.257 14.0149 375.871 19.3711C377.485 24.7273 377.657 29.8837 377.605 34.8684Z" fill="#F2F2F2"/>
        <path d="M333.137 57.0738L331.837 57.0665C331.424 56.8086 331.01 56.5537 330.593 56.3018C330.335 56.1391 330.074 55.9824 329.813 55.8227C325.502 53.1905 321.164 50.6656 316.799 48.2482C312.438 45.8287 308.056 43.5207 303.651 41.3242C303.534 41.2733 303.439 41.1832 303.382 41.0695C303.324 40.9557 303.309 40.8256 303.338 40.7016C303.342 40.6853 303.35 40.6699 303.359 40.656C303.421 40.5407 303.558 40.4928 303.758 40.5913C304.299 40.8621 304.842 41.133 305.382 41.4099C309.799 43.644 314.197 45.9897 318.576 48.4468C322.952 50.9028 327.303 53.4673 331.629 56.1402C331.72 56.1955 331.811 56.2538 331.902 56.3091C332.314 56.564 332.724 56.8189 333.137 57.0738Z" fill="white"/>
        <path d="M349.894 57.1674L349.091 57.163C348.909 56.9094 348.731 56.6558 348.55 56.4021C344.291 50.4317 340.033 44.4612 335.776 38.4907C328.805 28.7161 321.836 18.9416 314.869 9.167C314.827 9.11439 314.797 9.05426 314.778 8.98997C314.719 8.77355 314.878 8.64661 315.082 8.66906C315.167 8.68133 315.25 8.71178 315.323 8.75837C315.396 8.80496 315.459 8.86663 315.506 8.93925C319.415 14.4208 323.322 19.9004 327.229 25.3779C334.164 35.1036 341.098 44.8283 348.031 54.5519C348.472 55.1691 348.913 55.7894 349.354 56.4066C349.535 56.6602 349.716 56.9139 349.894 57.1674Z" fill="white"/>
        <path d="M367.798 52.5015C367.757 53.8556 367.668 55.1881 367.551 56.5082C367.528 56.7607 367.505 57.0131 367.483 57.2656L366.639 57.2609C366.665 57.0084 366.691 56.756 366.714 56.5035C366.892 54.5963 367.018 52.6676 367.035 50.6864C367.058 45.1938 366.522 39.7131 365.437 34.3287C364.284 28.5311 362.628 22.8448 360.488 17.3344C358.242 11.5226 355.534 5.89999 352.39 0.520392C352.331 0.432715 352.305 0.326951 352.316 0.221746C352.351 -0.0184954 352.671 -0.0897355 352.91 0.139837C352.957 0.18488 352.998 0.236329 353.031 0.292676C353.42 0.96134 353.802 1.632 354.176 2.30465C357.204 7.71412 359.796 13.3563 361.927 19.1776C363.957 24.7061 365.5 30.4009 366.541 36.1974C367.516 41.575 367.937 47.0382 367.798 52.5015Z" fill="white"/>
        <path d="M112.242 103.629C112.179 110.885 111.647 118.129 110.651 125.316C110.616 125.568 110.578 125.821 110.543 126.073L42.5756 125.693C42.376 125.443 42.1796 125.189 41.9893 124.932C41.3547 124.083 40.76 123.209 40.214 122.305C37.5899 117.951 36.3885 112.853 37.5924 109.335L37.614 109.28C37.8738 108.51 38.2833 107.799 38.819 107.187C41.5638 104.098 47.1135 104.613 52.1497 107.106C47.6325 102.163 44.0357 95.9256 43.7624 90.3578C43.4944 84.927 46.3349 81.0474 49.4157 77.7504C49.5169 77.6414 49.6179 77.5354 49.719 77.4295C49.768 77.375 49.8201 77.3235 49.869 77.269C52.2727 74.7565 55.075 72.2796 59.1312 72.5792C63.5798 72.9084 68.512 76.6336 71.9702 80.9745C75.4284 85.3123 77.7265 90.2401 80.0559 95.0494C82.3882 99.8557 84.9116 104.785 88.6543 108.893C83.5851 102.483 79.498 95.1894 77.9882 88.096C76.4784 81.0027 77.8071 74.19 82.325 70.8493C83.6966 69.8664 85.2837 69.2261 86.9535 68.9822C87.1484 68.9498 87.3464 68.9235 87.5475 68.9003C91.7298 68.4246 96.7233 69.8706 100.972 73.3273C105.651 77.1332 108.895 82.7754 110.509 88.1316C112.123 93.4878 112.295 98.6442 112.242 103.629Z" fill="#F2F2F2"/>
        <path d="M67.774 125.834L66.4744 125.827C66.0617 125.569 65.6471 125.314 65.2305 125.062C64.9726 124.9 64.7118 124.743 64.4507 124.583C60.1397 121.951 55.8018 119.426 51.4369 117.009C47.0759 114.589 42.693 112.281 38.2882 110.085C38.1714 110.034 38.0762 109.944 38.019 109.83C37.9618 109.716 37.9463 109.586 37.9751 109.462C37.9798 109.446 37.9871 109.43 37.9967 109.417C38.0582 109.301 38.1955 109.253 38.3959 109.352C38.9362 109.623 39.4796 109.893 40.0198 110.17C44.4367 112.405 48.8345 114.75 53.2135 117.207C57.5894 119.663 61.9403 122.228 66.2664 124.901C66.3573 124.956 66.4484 125.014 66.5394 125.07C66.9519 125.325 67.3615 125.579 67.774 125.834Z" fill="white"/>
        <path d="M84.5317 125.928L83.728 125.923C83.5468 125.67 83.3686 125.416 83.1874 125.163C78.9286 119.192 74.6707 113.222 70.4138 107.251C63.4425 97.4766 56.4733 87.702 49.5062 77.9275C49.4649 77.8749 49.4342 77.8148 49.4157 77.7505C49.3562 77.534 49.5152 77.4071 49.719 77.4296C49.8049 77.4418 49.8872 77.4723 49.9604 77.5189C50.0337 77.5655 50.0961 77.6271 50.1436 77.6997C54.0521 83.1813 57.9596 88.6609 61.8661 94.1384C68.8011 103.864 75.7351 113.589 82.6681 123.312C83.1091 123.93 83.55 124.55 83.991 125.167C84.1723 125.421 84.3536 125.674 84.5317 125.928Z" fill="white"/>
        <path d="M102.436 121.262C102.395 122.616 102.305 123.949 102.188 125.269C102.166 125.521 102.143 125.774 102.12 126.026L101.277 126.021C101.303 125.769 101.328 125.516 101.351 125.264C101.529 123.357 101.656 121.428 101.673 119.447C101.695 113.954 101.16 108.474 100.075 103.089C98.9215 97.2916 97.2655 91.6053 95.1256 86.0949C92.8796 80.2831 90.1717 74.6605 87.0279 69.2809C86.9686 69.1932 86.9423 69.0874 86.9534 68.9822C86.9882 68.742 87.3082 68.6708 87.5474 68.9003C87.5946 68.9454 87.6354 68.9968 87.6683 69.0532C88.0573 69.7218 88.4391 70.3925 88.8139 71.0651C91.8418 76.4746 94.4335 82.1168 96.5644 87.9381C98.594 93.4666 100.138 99.1614 101.178 104.958C102.153 110.335 102.575 115.799 102.436 121.262Z" fill="white"/>
        <path d="M145.868 155.038C145.223 155.039 144.589 154.866 144.033 154.538C143.478 154.21 143.021 153.738 142.71 153.172L139.072 146.529C138.615 145.694 138.509 144.711 138.776 143.797C139.044 142.883 139.663 142.112 140.498 141.653L195.878 111.336C196.714 110.879 197.697 110.773 198.611 111.04C199.526 111.307 200.297 111.926 200.755 112.761L204.394 119.404C204.85 120.24 204.956 121.223 204.689 122.137C204.422 123.051 203.803 123.821 202.968 124.28L147.588 154.597C147.061 154.887 146.469 155.038 145.868 155.038Z" fill="#6C63FF"/>
        <path d="M222.927 119.913C222.553 119.913 222.182 119.855 221.826 119.741C221.376 119.598 220.959 119.368 220.598 119.064C220.238 118.759 219.941 118.387 219.726 117.967L216.255 111.235C215.819 110.388 215.737 109.403 216.027 108.496C216.317 107.589 216.955 106.834 217.802 106.397L273.921 77.4704C274.769 77.0349 275.754 76.9532 276.661 77.2431C277.569 77.5331 278.324 78.1711 278.761 79.017L282.233 85.7485C282.669 86.5954 282.75 87.5805 282.46 88.4876C282.17 89.3947 281.532 90.1497 280.686 90.587L224.566 119.513C224.059 119.776 223.497 119.913 222.927 119.913Z" fill="#6C63FF"/>
        <path d="M221.915 121.542C221.247 121.542 220.593 121.356 220.024 121.006C219.456 120.656 218.996 120.154 218.696 119.558L215.297 112.79C214.913 112.026 214.815 111.151 215.019 110.321C215.042 110.23 215.068 110.138 215.098 110.047C215.167 109.841 215.241 109.518 215.328 109.145C215.603 107.954 215.946 106.472 216.644 106.122L241.303 91.1795C241.725 90.9645 242.186 90.8351 242.658 90.7986C243.13 90.7622 243.604 90.8194 244.054 90.9671C244.504 91.1147 244.921 91.3499 245.279 91.659C245.638 91.9682 245.932 92.3451 246.144 92.7683L252.364 105.586C252.79 106.437 252.86 107.423 252.56 108.326C252.26 109.229 251.614 109.977 250.764 110.405L223.498 121.166C223.007 121.413 222.465 121.542 221.915 121.542Z" fill="#2F2E41"/>
        <path d="M210.652 87.2954C225.823 87.2954 238.122 75 238.122 59.8327C238.122 44.6655 225.823 32.37 210.652 32.37C195.481 32.37 183.182 44.6655 183.182 59.8327C183.182 75 195.481 87.2954 210.652 87.2954Z" fill="#6C63FF"/>
        <path d="M206.323 234.221H198.748C197.795 234.219 196.882 233.841 196.209 233.167C195.535 232.494 195.156 231.581 195.155 230.629V167.506C195.156 166.553 195.535 165.64 196.209 164.967C196.882 164.293 197.795 163.915 198.748 163.914H206.323C207.276 163.915 208.189 164.293 208.863 164.967C209.536 165.64 209.915 166.553 209.916 167.506V230.629C209.915 231.581 209.536 232.494 208.863 233.167C208.189 233.841 207.276 234.219 206.323 234.221Z" fill="#6C63FF"/>
        <path d="M238.964 205.39C238.392 205.391 237.828 205.256 237.318 204.995C236.809 204.733 236.37 204.354 236.037 203.889L199.313 152.541C198.76 151.766 198.537 150.803 198.693 149.863C198.849 148.924 199.371 148.085 200.146 147.53L206.308 143.125C207.084 142.572 208.047 142.349 208.987 142.505C209.927 142.661 210.766 143.183 211.321 143.958L248.045 195.305C248.598 196.08 248.821 197.044 248.665 197.983C248.508 198.922 247.986 199.762 247.212 200.316L241.049 204.722C240.441 205.157 239.712 205.391 238.964 205.39Z" fill="#6C63FF"/>
        <path d="M229.222 234.293C228.466 234.281 227.724 234.095 227.052 233.751L220.27 230.375C218.496 229.492 217.519 227.839 218.092 226.69L235.57 191.592C236.142 190.443 238.051 190.226 239.824 191.108L246.606 194.484C247.396 194.858 248.069 195.443 248.55 196.173C248.759 196.457 248.891 196.79 248.932 197.14C248.973 197.49 248.922 197.844 248.785 198.169L231.306 233.267C230.971 233.94 230.178 234.293 229.222 234.293Z" fill="#6C63FF"/>
        <path d="M185.104 136.341C184.423 136.339 183.756 136.145 183.18 135.78C182.605 135.415 182.145 134.894 181.854 134.278L175.614 121.477C175.413 121.051 175.298 120.588 175.275 120.117C175.252 119.645 175.323 119.174 175.482 118.73C175.642 118.286 175.888 117.877 176.206 117.528C176.523 117.179 176.907 116.896 177.334 116.695L204.356 106.518C205.044 106.192 206.421 106.838 207.528 107.357C207.875 107.52 208.175 107.66 208.38 107.734C208.47 107.766 208.559 107.802 208.645 107.841C209.424 108.193 210.051 108.811 210.415 109.585L213.64 116.437C214.045 117.299 214.091 118.286 213.769 119.182C213.446 120.078 212.781 120.81 211.92 121.217L186.655 135.988C186.17 136.219 185.641 136.34 185.104 136.341Z" fill="#2F2E41"/>
        <path d="M206.995 70.0113L206.967 68.985C208.876 68.9319 210.56 68.8121 211.825 67.8881C212.184 67.6112 212.479 67.2604 212.69 66.8594C212.9 66.4584 213.022 66.0168 213.047 65.5644C213.07 65.288 213.028 65.0102 212.925 64.7526C212.823 64.495 212.662 64.2646 212.456 64.0791C211.616 63.37 210.265 63.5996 209.28 64.0511L208.43 64.4404L210.059 52.5405L211.076 52.6798L209.691 62.8023C211.029 62.4089 212.269 62.5783 213.118 63.2954C213.444 63.58 213.7 63.9362 213.866 64.3361C214.032 64.7359 214.103 65.1687 214.073 65.6005C214.043 66.2083 213.881 66.8021 213.597 67.3405C213.313 67.8788 212.915 68.3486 212.431 68.7169C210.805 69.9045 208.693 69.9637 206.995 70.0113Z" fill="#2F2E41"/>
        <path d="M221.634 53.5527H216.106V54.579H221.634V53.5527Z" fill="#2F2E41"/>
        <path d="M204.183 53.5527H198.655V54.579H204.183V53.5527Z" fill="#2F2E41"/>
        <path d="M254.679 175.219H169.228C168.642 175.222 168.065 175.069 167.557 174.777C167.048 174.484 166.626 174.063 166.333 173.555C166.039 173.047 165.886 172.471 165.887 171.885C165.888 171.299 166.044 170.723 166.339 170.216L209.064 96.2337C209.354 95.7243 209.775 95.3013 210.283 95.0082C210.79 94.7151 211.367 94.5625 211.954 94.566C212.54 94.5625 213.117 94.7151 213.624 95.0082C214.132 95.3013 214.553 95.7243 214.843 96.2337L257.568 170.216C257.861 170.723 258.015 171.299 258.015 171.884C258.015 172.469 257.861 173.045 257.568 173.552C257.275 174.059 256.854 174.48 256.347 174.772C255.84 175.065 255.264 175.219 254.679 175.219Z" fill="#2F2E41"/>
        <path d="M308.217 235H112.659C112.523 235 112.393 234.946 112.296 234.85C112.2 234.753 112.146 234.623 112.146 234.487C112.146 234.351 112.2 234.22 112.296 234.124C112.393 234.028 112.523 233.974 112.659 233.974H308.217C308.353 233.974 308.483 234.028 308.58 234.124C308.676 234.22 308.73 234.351 308.73 234.487C308.73 234.623 308.676 234.753 308.58 234.85C308.483 234.946 308.353 235 308.217 235Z" fill="#3F3D56"/>
        <path d="M212.728 32.0319C209.682 19.8248 197.874 10.4518 185.222 10.685C178.958 10.8607 172.918 13.0503 167.997 16.929C165.517 18.859 163.381 21.1951 161.681 23.8381C159.774 26.8133 158.577 30.1718 157.642 33.5616C155.753 40.4108 154.863 48.1613 150.07 53.7547C148.082 56.0189 145.632 57.8302 142.884 59.0661C140.136 60.302 137.154 60.9338 134.141 60.9187C131.105 60.8714 128.122 60.1221 125.424 58.7295C122.726 57.3368 120.388 55.3386 118.591 52.8915C114.983 48.0825 113.207 41.4317 115.292 35.6278C116.314 32.7798 118.514 30.0894 121.659 29.6146C123.094 29.4205 124.554 29.65 125.86 30.2748C127.166 30.8997 128.26 31.8926 129.009 33.1314C130.423 35.613 129.971 38.9242 128.199 41.113C126.332 43.4185 123.212 44.0568 120.461 43.1306C119.168 42.6911 118.031 41.8846 117.188 40.8095C116.573 40.0327 115.483 41.1217 116.092 41.8905C117.068 43.0605 118.328 43.9605 119.751 44.5042C121.174 45.0479 122.714 45.2172 124.221 44.9958C125.726 44.7682 127.139 44.132 128.307 43.1566C129.474 42.1812 130.352 40.9041 130.843 39.4643C131.381 38.0369 131.523 36.4901 131.252 34.9888C130.981 33.4874 130.307 32.0876 129.303 30.9385C128.258 29.8014 126.937 28.9518 125.469 28.4708C124 27.9899 122.433 27.8938 120.917 28.1917C117.669 28.8792 115.31 31.5499 114.086 34.5092C112.88 37.5837 112.561 40.935 113.167 44.1815C113.727 47.3143 114.94 50.2941 116.727 52.9271C118.515 55.5601 120.837 57.7872 123.543 59.4633C129.019 62.8248 135.854 63.2873 141.861 61.128C144.863 60.0665 147.604 58.3789 149.903 56.1771C152.374 53.6712 154.265 50.654 155.443 47.3382C158.152 40.2485 158.548 32.3153 162.381 25.6511C165.723 19.9926 170.996 15.7299 177.23 13.6459C183.428 11.5052 190.212 11.8308 196.176 14.5551C202.106 17.3009 206.883 22.0425 209.671 27.9514C210.336 29.3912 210.861 30.891 211.24 32.4305C211.481 33.3935 212.968 32.9939 212.728 32.0319Z" fill="#2F2E41"/>
        <path d="M401.691 128.78H281.072C278.758 128.778 276.541 127.858 274.905 126.223C273.269 124.587 272.349 122.37 272.346 120.057V65.6644C272.349 63.3516 273.269 61.1343 274.905 59.4989C276.541 57.8636 278.758 56.9436 281.072 56.941H401.691C404.005 56.9436 406.222 57.8636 407.858 59.4989C409.494 61.1343 410.414 63.3516 410.417 65.6644V120.057C410.414 122.37 409.494 124.587 407.858 126.223C406.222 127.858 404.005 128.778 401.691 128.78ZM281.072 57.9673C279.031 57.9696 277.074 58.7813 275.63 60.2243C274.187 61.6673 273.375 63.6237 273.373 65.6644V120.057C273.375 122.098 274.187 124.054 275.63 125.497C277.074 126.94 279.031 127.752 281.072 127.754H401.691C403.732 127.752 405.689 126.94 407.133 125.497C408.576 124.054 409.388 122.098 409.39 120.057V65.6644C409.388 63.6237 408.576 61.6673 407.133 60.2243C405.689 58.7813 403.732 57.9696 401.691 57.9673H281.072Z" fill="#3F3D56"/>
        <path d="M305.391 93.8215C311.556 93.8215 316.554 88.8251 316.554 82.6618C316.554 76.4985 311.556 71.5021 305.391 71.5021C299.226 71.5021 294.229 76.4985 294.229 82.6618C294.229 88.8251 299.226 93.8215 305.391 93.8215Z" fill="#CCCCCC"/>
        <path d="M329.632 75.2222C329.144 75.2303 328.679 75.4298 328.337 75.7777C327.994 76.1256 327.802 76.5941 327.802 77.082C327.802 77.57 327.994 78.0385 328.337 78.3864C328.679 78.7343 329.144 78.9338 329.632 78.9419H386.543C387.036 78.9488 387.511 78.76 387.864 78.417C388.218 78.0741 388.421 77.605 388.429 77.1125C388.437 76.62 388.25 76.1445 387.907 75.7901C387.565 75.4358 387.097 75.2315 386.604 75.2222C386.584 75.2218 386.563 75.2218 386.543 75.2222H329.632Z" fill="#CCCCCC"/>
        <path d="M329.632 86.3818C329.144 86.3899 328.679 86.5894 328.337 86.9374C327.994 87.2853 327.802 87.7537 327.802 88.2417C327.802 88.7297 327.994 89.1981 328.337 89.546C328.679 89.8939 329.144 90.0935 329.632 90.1016H386.543C387.036 90.1084 387.511 89.9196 387.864 89.5767C388.218 89.2337 388.421 88.7646 388.429 88.2721C388.437 87.7797 388.25 87.3041 387.907 86.9498C387.565 86.5954 387.097 86.3912 386.604 86.3818C386.584 86.3815 386.563 86.3815 386.543 86.3818H329.632Z" fill="#CCCCCC"/>
        <path d="M295.957 99.3396C295.469 99.3477 295.004 99.5472 294.662 99.8951C294.319 100.243 294.128 100.711 294.128 101.199C294.128 101.687 294.319 102.156 294.662 102.504C295.004 102.852 295.469 103.051 295.957 103.059H386.744C386.989 103.064 387.232 103.02 387.46 102.931C387.688 102.841 387.896 102.708 388.072 102.538C388.248 102.368 388.389 102.165 388.486 101.941C388.584 101.716 388.636 101.475 388.64 101.23C388.644 100.985 388.6 100.742 388.51 100.515C388.419 100.287 388.285 100.08 388.115 99.9043C387.945 99.7287 387.741 99.5884 387.516 99.4915C387.292 99.3946 387.05 99.343 386.805 99.3396C386.785 99.3393 386.765 99.3393 386.744 99.3396H295.957Z" fill="#CCCCCC"/>
        <path d="M295.957 110.499C295.469 110.507 295.004 110.707 294.662 111.055C294.319 111.403 294.128 111.871 294.128 112.359C294.128 112.847 294.319 113.316 294.662 113.664C295.004 114.011 295.469 114.211 295.957 114.219H386.744C386.989 114.224 387.232 114.18 387.46 114.091C387.688 114.001 387.896 113.868 388.072 113.698C388.248 113.528 388.389 113.325 388.486 113.1C388.584 112.876 388.636 112.634 388.64 112.39C388.644 112.145 388.6 111.902 388.51 111.675C388.419 111.447 388.285 111.24 388.115 111.064C387.945 110.888 387.741 110.748 387.516 110.651C387.292 110.554 387.05 110.503 386.805 110.499C386.785 110.499 386.765 110.499 386.744 110.499H295.957Z" fill="#CCCCCC"/>
        <path d="M406.88 115.245C420.374 115.475 420.372 135.542 406.88 135.77C393.387 135.54 393.389 115.473 406.88 115.245Z" fill="#6C63FF"/>
        <path d="M406.881 131.096C406.689 131.096 406.506 131.019 406.371 130.884C406.235 130.749 406.159 130.566 406.159 130.375V126.55C406.159 126.465 406.125 126.383 406.065 126.323C406.005 126.263 405.923 126.229 405.838 126.229H402.013C401.821 126.229 401.638 126.153 401.502 126.018C401.367 125.882 401.291 125.699 401.291 125.508C401.291 125.316 401.367 125.133 401.502 124.998C401.638 124.862 401.821 124.786 402.013 124.786H405.838C405.923 124.786 406.005 124.752 406.065 124.692C406.125 124.632 406.159 124.55 406.159 124.465V120.641C406.159 120.449 406.235 120.266 406.37 120.131C406.506 119.995 406.689 119.919 406.881 119.919C407.072 119.919 407.255 119.995 407.391 120.131C407.526 120.266 407.602 120.449 407.602 120.641V124.465C407.602 124.55 407.636 124.632 407.696 124.692C407.756 124.752 407.838 124.786 407.923 124.786H411.749C411.94 124.786 412.123 124.862 412.259 124.998C412.394 125.133 412.47 125.316 412.47 125.508C412.47 125.699 412.394 125.882 412.259 126.018C412.123 126.153 411.94 126.229 411.749 126.229H407.923C407.838 126.229 407.756 126.263 407.696 126.323C407.636 126.383 407.602 126.465 407.602 126.55V130.375C407.602 130.566 407.526 130.749 407.39 130.884C407.255 131.019 407.072 131.096 406.881 131.096Z" fill="white"/>
        <path d="M136.328 197.541H15.7091C13.3957 197.538 11.1778 196.618 9.54195 194.983C7.90614 193.348 6.986 191.13 6.9834 188.818V134.425C6.986 132.112 7.90615 129.895 9.54196 128.259C11.1778 126.624 13.3957 125.704 15.7091 125.702H136.328C138.642 125.704 140.86 126.624 142.495 128.259C144.131 129.895 145.051 132.112 145.054 134.425V188.818C145.051 191.13 144.131 193.348 142.495 194.983C140.86 196.618 138.642 197.538 136.328 197.541ZM15.7091 126.728C13.6678 126.73 11.7109 127.542 10.2675 128.985C8.82415 130.428 8.01226 132.384 8.00995 134.425V188.818C8.01226 190.858 8.82415 192.815 10.2675 194.258C11.7109 195.701 13.6678 196.512 15.7091 196.515H136.328C138.37 196.512 140.327 195.701 141.77 194.258C143.213 192.815 144.025 190.858 144.027 188.818V134.425C144.025 132.384 143.213 130.428 141.77 128.985C140.327 127.542 138.37 126.73 136.328 126.728H15.7091Z" fill="#3F3D56"/>
        <path d="M30.5949 148.537C30.1068 148.545 29.6415 148.745 29.2992 149.093C28.9569 149.44 28.7651 149.909 28.7651 150.397C28.7651 150.885 28.9569 151.353 29.2992 151.701C29.6415 152.049 30.1068 152.249 30.5949 152.257H121.382C121.626 152.261 121.87 152.218 122.097 152.128C122.325 152.039 122.533 151.905 122.709 151.735C122.885 151.565 123.026 151.362 123.124 151.138C123.221 150.914 123.273 150.672 123.277 150.427C123.281 150.183 123.237 149.94 123.147 149.712C123.057 149.485 122.923 149.277 122.752 149.102C122.582 148.926 122.379 148.786 122.154 148.689C121.929 148.592 121.687 148.54 121.443 148.537C121.422 148.537 121.402 148.537 121.382 148.537H30.5949Z" fill="#CCCCCC"/>
        <path d="M30.5949 159.697C30.1068 159.705 29.6415 159.904 29.2992 160.252C28.9569 160.6 28.7651 161.069 28.7651 161.557C28.7651 162.045 28.9569 162.513 29.2992 162.861C29.6415 163.209 30.1068 163.408 30.5949 163.416H121.382C121.626 163.421 121.87 163.377 122.097 163.288C122.325 163.199 122.533 163.065 122.709 162.895C122.885 162.725 123.026 162.522 123.124 162.298C123.221 162.073 123.273 161.832 123.277 161.587C123.281 161.343 123.237 161.1 123.147 160.872C123.057 160.645 122.923 160.437 122.752 160.261C122.582 160.086 122.379 159.946 122.154 159.849C121.929 159.752 121.687 159.7 121.443 159.697C121.422 159.696 121.402 159.696 121.382 159.697H30.5949Z" fill="#CCCCCC"/>
        <path d="M30.5949 170.986C30.1068 170.994 29.6415 171.193 29.2992 171.541C28.9569 171.889 28.7651 172.358 28.7651 172.846C28.7651 173.334 28.9569 173.802 29.2992 174.15C29.6415 174.498 30.1068 174.697 30.5949 174.705H121.382C121.626 174.71 121.87 174.666 122.097 174.577C122.325 174.487 122.533 174.354 122.709 174.184C122.885 174.014 123.026 173.811 123.124 173.587C123.221 173.362 123.273 173.121 123.277 172.876C123.281 172.632 123.237 172.389 123.147 172.161C123.057 171.934 122.923 171.726 122.752 171.55C122.582 171.375 122.379 171.235 122.154 171.138C121.929 171.041 121.687 170.989 121.443 170.986C121.422 170.985 121.402 170.985 121.382 170.986H30.5949Z" fill="#CCCCCC"/>
        <path d="M10.1197 184.005C23.6137 184.236 23.6116 204.302 10.1193 204.531C-3.37423 204.301 -3.37212 184.234 10.1197 184.005Z" fill="#6C63FF"/>
        <path d="M10.1198 199.856C9.92854 199.856 9.74517 199.78 9.60993 199.645C9.47468 199.51 9.3986 199.326 9.39837 199.135V195.311C9.39829 195.226 9.3644 195.144 9.30413 195.084C9.24386 195.023 9.16214 194.99 9.07689 194.989H5.25181C5.06045 194.989 4.87692 194.913 4.7416 194.778C4.60629 194.643 4.53027 194.459 4.53027 194.268C4.53027 194.077 4.60629 193.893 4.7416 193.758C4.87692 193.623 5.06045 193.547 5.25181 193.547H9.07692C9.16215 193.547 9.24386 193.513 9.30413 193.453C9.3644 193.392 9.3983 193.311 9.39839 193.225V189.401C9.3989 189.21 9.47513 189.027 9.61036 188.892C9.7456 188.758 9.92879 188.682 10.1198 188.682C10.3108 188.682 10.494 188.758 10.6292 188.892C10.7644 189.027 10.8407 189.21 10.8412 189.401V193.225C10.8413 193.311 10.8752 193.392 10.9355 193.453C10.9957 193.513 11.0774 193.547 11.1627 193.547H14.9878C15.1791 193.547 15.3627 193.623 15.498 193.758C15.6333 193.893 15.7093 194.077 15.7093 194.268C15.7093 194.459 15.6333 194.643 15.498 194.778C15.3627 194.913 15.1791 194.989 14.9878 194.989H11.1627C11.0774 194.99 10.9957 195.023 10.9354 195.084C10.8752 195.144 10.8413 195.226 10.8412 195.311V199.135C10.841 199.326 10.7649 199.51 10.6297 199.645C10.4944 199.78 10.3111 199.856 10.1198 199.856Z" fill="white"/>
    </g>
    <defs>
        <clipPath id="clip0_47_28">
            <rect width="417" height="235" fill="white"/>
        </clipPath>
    </defs>
</svg>
